<svg id="Layer_1" data-name="Layer 1" xmlns="http://www.w3.org/2000/svg" viewBox="0 0 111.93 122.88"><title>at-the-rate</title><path d="M46.4,63.92a35.1,35.1,0,0,0,.34,9.16,10,10,0,0,0,2.62,5.48,6.61,6.61,0,0,0,4.78,1.81,7.44,7.44,0,0,0,3.14-.88A10.57,10.57,0,0,0,61,75.81a19.82,19.82,0,0,0,2.3-5.07l2.5-29.08a16.5,16.5,0,0,0-3.38-.35A13,13,0,0,0,53.94,44a16.89,16.89,0,0,0-5,7.67,56.76,56.76,0,0,0-2.55,12.3ZM65.57,85.85a21.54,21.54,0,0,1-3.47,3.59A20.88,20.88,0,0,1,48.52,94a17.75,17.75,0,0,1-11.17-3.7,21.8,21.8,0,0,1-7.08-10.49,38.29,38.29,0,0,1-1.45-15.89,54.16,54.16,0,0,1,5.83-19.27A34.64,34.64,0,0,1,45.84,32,26.88,26.88,0,0,1,61,27.5q8,0,12.5,2.24a90.13,90.13,0,0,1,8.71,5L78.87,74a10.33,10.33,0,0,0,0,3.75,5,5,0,0,0,1.27,2.37,4.78,4.78,0,0,0,2.07,1.26,8.26,8.26,0,0,0,9-2.91,24.65,24.65,0,0,0,4.58-8.94,47.2,47.2,0,0,0,2-12.72q.64-13.14-3.32-23.2a32.2,32.2,0,0,0-12.73-15.7Q73,12.22,59.17,12.23q-13.31,0-22.83,6.77A45,45,0,0,0,21.45,37.25a69,69,0,0,0-6,25.68,66.26,66.26,0,0,0,1.89,20.53,35.45,35.45,0,0,0,7.5,14.37,31,31,0,0,0,12.72,8.46A50.83,50.83,0,0,0,55,109.07a58.88,58.88,0,0,0,11.73-1.22A59.39,59.39,0,0,0,76.88,105l2.58,12a34.27,34.27,0,0,1-11.6,4.44,63.74,63.74,0,0,1-13.13,1.45q-17.91,0-30.4-6.63a42.56,42.56,0,0,1-18.75-20Q-.65,82.95.08,62.93A79.48,79.48,0,0,1,5,37.93a62.41,62.41,0,0,1,12.07-20A53.6,53.6,0,0,1,35.5,4.72,58.79,58.79,0,0,1,59.42,0q17.4,0,29.35,7.11a44.29,44.29,0,0,1,17.9,19.72q5.88,12.62,5.19,29.15A63.42,63.42,0,0,1,109.76,70a41.49,41.49,0,0,1-5.44,12.32,27.89,27.89,0,0,1-9.23,8.73,26.68,26.68,0,0,1-13.45,3.25,18.56,18.56,0,0,1-13.76-5.51,16.18,16.18,0,0,1-2.31-3Z"/></svg>